# File created by Blade
# Date/Time:  Thu Jan 22 16:05:08 2015
#---------------------------------------------------------
:version 1.10
:name HOM
:units
  mass 1.0
  length 1.000000
  angle deg
:documentation
     Acclaim Skeleton File
:root
   axis xyz
   order TX TY TZ RX RY RZ
   position 0.000000 0.000000 0.000000
   orientation 0 0 0
:bonedata
   begin
      id 1
      name RightUpLeg_dum
      direction -1.000000 0.000000 0.000000
      length 3.766986
      axis 0.0 0.0 0.0 xyz
   end
   begin
      id 2
      name LeftUpLeg_dum
      direction 1.000000 0.000000 0.000000
      length 3.766986
      axis 0.0 0.0 0.0 xyz
   end
   begin
      id 3
      name Spine_dum
      direction 0.000000 1.000000 0.000000
      length 7.779697
      axis 0.0 0.0 0.0 xyz
   end
   begin
      id 4
      name RightUpLeg
      direction 0.000000 -1.000000 0.000000
      length 18.017682
      axis 0.0 0.0 0.0 xyz
      dof rx ry rz
   end
   begin
      id 5
      name RightLeg
      direction 0.000000 -1.000000 0.000000
      length 16.881075
      axis 0.0 0.0 0.0 xyz
      dof rx ry rz
   end
   begin
      id 6
      name RightFoot
      direction 0.000000 -0.258819 0.965926
      length 5.770812
      axis 15.0 0.0 0.0 xyz
      dof rx ry rz
   end
   begin
      id 7
      name RightToeBase
      direction 0.000000 0.000000 1.000000
      length 2.952750
      axis 0.0 0.0 0.0 xyz
      dof rx ry rz
   end
   begin
      id 8
      name LeftUpLeg
      direction 0.000000 -1.000000 0.000000
      length 18.017682
      axis 0.0 0.0 0.0 xyz
      dof rx ry rz
   end
   begin
      id 9
      name LeftLeg
      direction 0.000000 -1.000000 0.000000
      length 16.881075
      axis 0.0 0.0 0.0 xyz
      dof rx ry rz
   end
   begin
      id 10
      name LeftFoot
      direction 0.000000 -0.258819 0.965926
      length 5.770812
      axis 15.0 0.0 0.0 xyz
      dof rx ry rz
   end
   begin
      id 11
      name LeftToeBase
      direction 0.000000 0.000000 1.000000
      length 2.952750
      axis 0.0 0.0 0.0 xyz
      dof rx ry rz
   end
   begin
      id 12
      name Spine
      direction 0.000000 1.000000 0.000000
      length 0.000000
      axis 0.0 0.0 0.0 xyz
      dof rx ry rz
   end
   begin
      id 13
      name Spine_dum1
      direction 0.000000 1.000000 0.000000
      length 10.941760
      axis 0.0 0.0 0.0 xyz
   end
   begin
      id 14
      name Spine_dum2
      direction 0.000000 1.000000 0.000000
      length 10.941760
      axis 0.0 0.0 0.0 xyz
   end
   begin
      id 15
      name Spine_dum3
      direction 0.000000 1.000000 0.000000
      length 16.646042
      axis 0.0 0.0 0.0 xyz
   end
   begin
      id 16
      name RightShoulder
      direction -1.000000 0.000000 0.000000
      length 7.708937
      axis 0.0 0.0 90.0 xyz
      dof rx ry rz
   end
   begin
      id 17
      name RightArm
      direction -1.000000 0.000000 0.000000
      length 11.521345
      axis 0.0 0.0 90.0 xyz
      dof rx ry rz
   end
   begin
      id 18
      name RightForeArm
      direction -1.000000 0.000000 0.000000
      length 10.175898
      axis 0.0 0.0 90.0 xyz
      dof ry rz rx
   end
   begin
      id 19
      name RightHand
      direction -1.000000 0.000000 0.000000
      length 0.000000
      axis 0.0 0.0 90.0 xyz
      dof rx ry rz
   end
   begin
      id 20
      name RightHand_dum1
      direction -1.000000 0.000000 0.000000
      length 3.937000
      axis 0.0 0.0 90.0 xyz
   end
   begin
      id 21
      name RightHand_dum2
      direction 0.000000 0.000000 0.000000
      length 0.000000
      axis 0.0 0.0 90.0 xyz
   end
   begin
      id 22
      name RightHandThumb1
      direction 0.000000 0.000000 1.000000
      length 3.937000
      axis 0.0 0.0 90.0 xyz
      dof rx rz ry
   end
   begin
      id 23
      name LeftShoulder
      direction 1.000000 0.000000 0.000000
      length 7.708937
      axis 0.0 0.0 -90.0 xyz
      dof rx ry rz
   end
   begin
      id 24
      name LeftArm
      direction 1.000000 0.000000 0.000000
      length 11.521345
      axis 0.0 0.0 -90.0 xyz
      dof rx ry rz
   end
   begin
      id 25
      name LeftForeArm
      direction 1.000000 0.000000 0.000000
      length 10.175898
      axis 0.0 0.0 -90.0 xyz
      dof ry rz rx
   end
   begin
      id 26
      name LeftHand
      direction 1.000000 0.000000 0.000000
      length 0.000000
      axis 0.0 0.0 -90.0 xyz
      dof rx ry rz
   end
   begin
      id 27
      name LeftHand_dum1
      direction 1.000000 0.000000 0.000000
      length 3.937000
      axis 0.0 0.0 -90.0 xyz
   end
   begin
      id 28
      name LeftHand_dum2
      direction 0.000000 0.000000 0.000000
      length 0.000000
      axis 0.0 0.0 -90.0 xyz
   end
   begin
      id 29
      name LeftHandThumb1
      direction 0.000000 0.000000 1.000000
      length 3.937000
      axis 0.0 0.0 -90.0 xyz
      dof rx rz ry
   end
   begin
      id 30
      name Head
      direction 0.000000 1.000000 0.000000
      length 4.527550
      axis 0.0 0.0 0.0 xyz
      dof rx ry rz
   end
:hierarchy
   begin
      root RightUpLeg_dum LeftUpLeg_dum Spine_dum
      RightUpLeg_dum RightUpLeg
      LeftUpLeg_dum LeftUpLeg
      Spine_dum Spine
      RightUpLeg RightLeg
      RightLeg RightFoot
      RightFoot RightToeBase
      LeftUpLeg LeftLeg
      LeftLeg LeftFoot
      LeftFoot LeftToeBase
      Spine Spine_dum1 Spine_dum2 Spine_dum3
      Spine_dum1 RightShoulder
      Spine_dum2 LeftShoulder
      Spine_dum3 Head
      RightShoulder RightArm
      RightArm RightForeArm
      RightForeArm RightHand
      RightHand RightHand_dum1 RightHand_dum2
      RightHand_dum2 RightHandThumb1
      LeftShoulder LeftArm
      LeftArm LeftForeArm
      LeftForeArm LeftHand
      LeftHand LeftHand_dum1 LeftHand_dum2
      LeftHand_dum2 LeftHandThumb1
   end

# File created by Blade
# Date/Time:  Thu Jan 22 16:04:59 2015
# Frame Rate: 120.000 fps
#------------------------------------------------------
:FULLY-SPECIFIED
:DEGREES
668
root 3.578761 36.713310 6.430135 4.255635 38.962739 9.173651
RightUpLeg 21.471120 -30.508550 -15.124809
RightLeg -6.582540 -0.000000 0.000000
RightFoot -19.447243 -25.068019 26.261682
RightToeBase 10.261202 -0.000000 -0.000000
LeftUpLeg -7.396641 -32.037897 3.915550
LeftLeg 5.989346 -0.000000 -0.000000
LeftFoot -1.234035 -1.131460 -20.962402
LeftToeBase 0.429555 -0.000000 -0.000000
Spine 5.552119 36.509718 2.449511
RightShoulder 9.745994 -3.902508 -39.749489
RightArm 75.620068 2.317246 30.603820
RightForeArm -14.088001 0.000000 101.821682
RightHand 10.966887 -0.000000 -6.114829
RightHandThumb1 -24.326973 -0.000000 -32.862282
LeftShoulder -39.893796 38.539545 -0.608446
LeftArm 30.706539 -37.183289 -55.228709
LeftForeArm 36.136729 -0.000000 7.806860
LeftHand -25.497097 -0.000000 0.743229
LeftHandThumb1 -26.253704 0.000000 33.147579
Head 12.121267 63.347779 -6.091720
669
root 3.603540 36.713774 6.407905 4.456820 39.330267 9.303063
RightUpLeg 21.456321 -30.703868 -15.189330
RightLeg -6.578520 -0.000000 0.000000
RightFoot -19.467389 -25.221504 26.278277
RightToeBase 10.219968 -0.000000 -0.000000
LeftUpLeg -7.650450 -32.233802 3.892188
LeftLeg 6.067816 -0.000000 -0.000000
LeftFoot -1.125963 -1.244330 -20.969328
LeftToeBase 0.423356 -0.000000 -0.000000
Spine 5.497089 36.763571 2.473103
RightShoulder 9.782404 -3.751182 -39.839365
RightArm 76.016374 2.268332 30.484014
RightForeArm -14.304716 -0.000000 102.177786
RightHand 10.913753 -0.000000 -6.168145
RightHandThumb1 -24.326973 -0.000000 -32.862282
LeftShoulder -39.869114 38.595424 -0.553100
LeftArm 30.414761 -37.194250 -55.282821
LeftForeArm 35.921595 -0.000000 7.826331
LeftHand -25.513955 0.000000 0.968516
LeftHandThumb1 -26.253704 0.000000 33.147579
Head 12.678574 63.730336 -5.909292
670
root 3.626109 36.714044 6.384699 4.646326 39.668894 9.412095
RightUpLeg 21.427702 -30.871276 -15.224350
RightLeg -6.586555 -0.000000 0.000000
RightFoot -19.515049 -25.382670 26.314664
RightToeBase 10.186221 -0.000000 -0.000000
LeftUpLeg -7.908931 -32.448816 3.898524
LeftLeg 6.137683 -0.000000 -0.000000
LeftFoot -1.015742 -1.349139 -20.940074
LeftToeBase 0.372221 -0.000000 -0.000000
Spine 5.475659 37.044016 2.537588
RightShoulder 9.802913 -3.592190 -39.909253
RightArm 76.440868 2.200581 30.280866
RightForeArm -14.715738 -0.000000 102.459230
RightHand 11.147432 -0.000000 -6.556532
RightHandThumb1 -24.326973 -0.000000 -32.862282
LeftShoulder -39.883512 38.634983 -0.546646
LeftArm 30.168233 -37.149071 -55.314289
LeftForeArm 35.580070 -0.000000 7.819412
LeftHand -25.623568 -0.000000 1.018713
LeftHandThumb1 -26.253704 0.000000 33.147579
Head 13.232524 64.135381 -5.743315
671
root 3.650454 36.714192 6.361630 4.842297 40.045044 9.532724
RightUpLeg 21.432494 -31.047718 -15.265740
RightLeg -6.637527 -0.000000 0.000000
RightFoot -19.534612 -25.591458 26.342284
RightToeBase 10.195845 -0.000000 -0.000000
LeftUpLeg -8.173065 -32.716631 3.900359
LeftLeg 6.217948 -0.000000 -0.000000
LeftFoot -0.928320 -1.431606 -20.983676
LeftToeBase 0.396951 -0.000000 -0.000000
Spine 5.453271 37.234456 2.583872
RightShoulder 9.822706 -3.425119 -39.971182
RightArm 76.901610 2.140632 30.166670
RightForeArm -14.676878 -0.000000 102.782623
RightHand 11.205670 -0.000000 -6.619407
RightHandThumb1 -24.326973 -0.000000 -32.862282
LeftShoulder -39.981181 38.659465 -0.582609
LeftArm 29.955527 -37.071889 -55.342915
LeftForeArm 35.308683 -0.000000 7.755001
LeftHand -25.545856 -0.000000 1.377334
LeftHandThumb1 -26.253704 0.000000 33.147579
Head 13.842851 64.613579 -5.495125
672
root 3.672381 36.714148 6.337019 5.013286 40.381628 9.627009
RightUpLeg 21.415319 -31.163689 -15.271889
RightLeg -6.677586 -0.000000 0.000000
RightFoot -19.563002 -25.818381 26.363108
RightToeBase 10.139616 -0.000000 -0.000000
LeftUpLeg -8.418088 -32.919791 3.909272
LeftLeg 6.300105 -0.000000 -0.000000
LeftFoot -0.856466 -1.521037 -21.058854
LeftToeBase 0.432649 -0.000000 -0.000000
Spine 5.450562 37.474800 2.662355
RightShoulder 9.835435 -3.281908 -40.021371
RightArm 77.343680 2.115465 29.969254
RightForeArm -14.892759 0.000000 103.119455
RightHand 11.081392 -0.000000 -6.980810
RightHandThumb1 -24.326973 -0.000000 -32.862282
LeftShoulder -40.018059 38.661607 -0.559888
LeftArm 29.691309 -37.004316 -55.389545
LeftForeArm 35.159591 -0.000000 7.777377
LeftHand -25.676692 -0.000000 1.428471
LeftHandThumb1 -26.253704 0.000000 33.147579
Head 14.426196 65.046597 -5.256234
673
root 3.693585 36.713824 6.313795 5.154844 40.713141 9.716804
RightUpLeg 21.423297 -31.328594 -15.313390
RightLeg -6.675871 -0.000000 0.000000
RightFoot -19.601384 -25.947108 26.412992
RightToeBase 10.103793 -0.000000 -0.000000
LeftUpLeg -8.632418 -33.163567 3.923287
LeftLeg 6.361364 -0.000000 -0.000000
LeftFoot -0.759732 -1.622716 -21.065385
LeftToeBase 0.401809 -0.000000 -0.000000
Spine 5.493969 37.697079 2.790781
RightShoulder 9.912739 -3.015087 -40.110700
RightArm 77.660001 1.996957 29.928578
RightForeArm -14.845946 -0.000000 103.476499
RightHand 11.200123 0.000000 -6.867817
RightHandThumb1 -24.326973 -0.000000 -32.862282
LeftShoulder -40.048342 38.721904 -0.567550
LeftArm 29.468494 -36.986026 -55.504929
LeftForeArm 35.066605 0.000000 7.777519
LeftHand -25.588587 0.000000 1.431382
LeftHandThumb1 -26.253704 0.000000 33.147579
Head 14.950363 65.401926 -5.126351
674
root 3.715397 36.713749 6.288435 5.319821 41.043112 9.812987
RightUpLeg 21.392103 -31.504480 -15.340339
RightLeg -6.661428 -0.000000 0.000000
RightFoot -19.628148 -26.146290 26.382765
RightToeBase 10.059552 -0.000000 -0.000000
LeftUpLeg -8.861095 -33.397185 3.937701
LeftLeg 6.415760 -0.000000 -0.000000
LeftFoot -0.669677 -1.707687 -21.084616
LeftToeBase 0.377008 -0.000000 -0.000000
Spine 5.516729 37.935376 2.882365
RightShoulder 9.915303 -2.243497 -40.164684
RightArm 77.737905 1.351298 29.941696
RightForeArm -14.867956 -0.000000 103.838627
RightHand 11.254974 -0.000000 -6.837859
RightHandThumb1 -24.326973 -0.000000 -32.862282
LeftShoulder -40.077809 38.738378 -0.535865
LeftArm 29.218748 -36.803828 -55.535263
LeftForeArm 34.911168 -0.000000 7.770108
LeftHand -25.832528 -0.000000 1.595919
LeftHandThumb1 -26.253704 0.000000 33.147579
Head 15.459140 65.742796 -4.963641
675
root 3.732714 36.714020 6.264294 5.467088 41.397648 9.911542
RightUpLeg 21.407807 -31.663254 -15.366190
RightLeg -6.687626 -0.000000 0.000000
RightFoot -19.669890 -26.330666 26.426161
RightToeBase 10.047376 -0.000000 -0.000000
LeftUpLeg -9.069379 -33.647695 3.946006
LeftLeg 6.464216 -0.000000 -0.000000
LeftFoot -0.572890 -1.770239 -21.118142
LeftToeBase 0.377623 -0.000000 -0.000000
Spine 5.590230 38.087035 3.006769
RightShoulder 9.967031 -1.915625 -40.251283
RightArm 78.100141 1.167744 29.913480
RightForeArm -14.884732 -0.000000 104.130982
RightHand 11.255720 -0.000000 -6.865651
RightHandThumb1 -24.326973 -0.000000 -32.862282
LeftShoulder -40.084007 38.711966 -0.519380
LeftArm 28.862621 -36.613891 -55.487976
LeftForeArm 34.773730 -0.000000 7.741825
LeftHand -25.819242 0.000000 1.532288
LeftHandThumb1 -26.253704 0.000000 33.147579
Head 15.913931 66.143620 -4.871855
676
root 3.756117 36.714523 6.235110 5.591693 41.655964 9.979467
RightUpLeg 21.360711 -31.735516 -15.374165
RightLeg -6.659978 -0.000000 0.000000
RightFoot -19.705204 -26.524001 26.421625
RightToeBase 9.987180 -0.000000 -0.000000
LeftUpLeg -9.248119 -33.840307 3.937383
LeftLeg 6.518704 -0.000000 -0.000000
LeftFoot -0.551271 -1.766020 -21.135407
LeftToeBase 0.405813 -0.000000 -0.000000
Spine 5.666312 38.357459 3.173956
RightShoulder 9.994238 -1.912191 -40.380638
RightArm 78.598290 1.227295 29.857404
RightForeArm -14.902065 0.000000 104.430713
RightHand 11.307495 -0.000000 -6.985482
RightHandThumb1 -24.326973 -0.000000 -32.862282
LeftShoulder -40.127532 38.745161 -0.554417
LeftArm 28.652110 -36.480283 -55.540576
LeftForeArm 34.566879 0.000000 7.691824
LeftHand -25.936513 0.000000 1.793035
LeftHandThumb1 -26.253704 0.000000 33.147579
Head 16.384165 66.490031 -4.799706
677
root 3.775879 36.715150 6.205981 5.684272 41.950209 10.048132
RightUpLeg 21.366239 -31.779454 -15.388271
RightLeg -6.646570 -0.000000 0.000000
RightFoot -19.765794 -26.711973 26.492197
RightToeBase 9.991707 -0.000000 -0.000000
LeftUpLeg -9.417373 -34.077580 3.937902
LeftLeg 6.576720 -0.000000 -0.000000
LeftFoot -0.466185 -1.814958 -21.142329
LeftToeBase 0.377434 -0.000000 -0.000000
Spine 5.812490 38.588942 3.378626
RightShoulder 10.047386 -1.897625 -40.499462
RightArm 79.032720 1.311427 29.811834
RightForeArm -14.943994 -0.000000 104.746445
RightHand 11.311278 -0.000000 -6.902581
RightHandThumb1 -24.326973 -0.000000 -32.862282
LeftShoulder -40.174331 38.781163 -0.605341
LeftArm 28.508218 -36.383376 -55.649935
LeftForeArm 34.365654 -0.000000 7.614300
LeftHand -26.075048 -0.000000 1.719328
LeftHandThumb1 -26.253704 0.000000 33.147579
Head 16.836621 66.779356 -4.705278
678
root 3.789401 36.715389 6.177940 5.800979 42.250671 10.122954
RightUpLeg 21.360842 -31.740587 -15.347445
RightLeg -6.698944 -0.000000 0.000000
RightFoot -19.867639 -26.989790 26.625329
RightToeBase 9.971057 -0.000000 -0.000000
LeftUpLeg -9.597701 -34.214812 3.941853
LeftLeg 6.622891 -0.000000 -0.000000
LeftFoot -0.348961 -1.929770 -21.144990
LeftToeBase 0.315323 -0.000000 -0.000000
Spine 5.910461 38.832997 3.532050
RightShoulder 10.074126 -1.852595 -40.512675
RightArm 79.479336 1.373313 29.688406
RightForeArm -14.704734 -0.000000 104.961699
RightHand 11.509215 -0.000000 -6.913730
RightHandThumb1 -24.326973 -0.000000 -32.862282
LeftShoulder -40.252000 38.877485 -0.653534
LeftArm 28.582732 -36.424460 -55.970722
LeftForeArm 34.170876 -0.000000 7.468364
LeftHand -26.212693 0.000000 2.320128
LeftHandThumb1 -26.253704 0.000000 33.147579
Head 17.420580 67.032715 -4.418407
